<?xml version="1.0" encoding="UTF-8" standalone="no"?>
<svg
   viewBox="229.76250000000002 607.8 1068 288"
   version="1.1"
   style="max-height: 500px"
   width="1068"
   height="288"
   id="svg7"
   sodipodi:docname="logo.svg"
   inkscape:version="1.3.2 (091e20e, 2023-11-25, custom)"
   xmlns:inkscape="http://www.inkscape.org/namespaces/inkscape"
   xmlns:sodipodi="http://sodipodi.sourceforge.net/DTD/sodipodi-0.dtd"
   xmlns="http://www.w3.org/2000/svg"
   xmlns:svg="http://www.w3.org/2000/svg">
  <defs
     id="defs7" />
  <sodipodi:namedview
     id="namedview7"
     pagecolor="#ffffff"
     bordercolor="#000000"
     borderopacity="0.25"
     inkscape:showpageshadow="2"
     inkscape:pageopacity="0.0"
     inkscape:pagecheckerboard="0"
     inkscape:deskcolor="#d1d1d1"
     showgrid="false"
     inkscape:zoom="0.63389513"
     inkscape:cx="802.97193"
     inkscape:cy="177.47415"
     inkscape:window-width="1920"
     inkscape:window-height="991"
     inkscape:window-x="-9"
     inkscape:window-y="-9"
     inkscape:window-maximized="1"
     inkscape:current-layer="svg7" />
  <rect
     fill="#ffffff"
     height="1500"
     width="1500"
     id="rect1" />
  <g
     transform="matrix(0.66666667,0,0,0.66666667,254.12659,626.32124)"
     id="g6">
    <svg
       width="1500"
       height="363"
       preserveAspectRatio="xMidYMid"
       data-background-color="#ffffff"
       viewBox="0 0 396 96"
       version="1.1"
       id="svg6">
      <g
         transform="translate(0.23999912,0.43684521)"
         id="tight-bounds">
        <svg
           width="395.51999"
           height="95.126312"
           viewBox="0 0 395.52 95.12631"
           version="1.1"
           id="svg5">
          <g
             id="g4">
            <svg
               width="395.51999"
               height="95.126312"
               viewBox="0 0 395.52 95.12631"
               version="1.1"
               id="svg4">
              <g
                 id="g3">
                <svg
                   width="395.51999"
                   height="95.126312"
                   viewBox="0 0 395.52 95.12631"
                   version="1.1"
                   id="svg3">
                  <g
                     id="textblocktransform">
                    <svg
                       id="textblock"
                       width="395.51999"
                       height="95.126312"
                       viewBox="0 0 395.52 95.12631"
                       version="1.1">
                      <g
                         id="g2">
                        <svg
                           width="395.51999"
                           height="95.126312"
                           viewBox="0 0 395.52 95.12631"
                           version="1.1"
                           id="svg2">
                          <g
                             id="g1">
                            <svg
                               data-palette-color="#fd6c10"
                               height="95.126312"
                               viewBox="1.75 -40.85 194.35903 46.75"
                               width="395.51999"
                               version="1.1"
                               id="svg1">
                              <path
                                 d="m 174.78,-15.2 h 16.25 q -0.1,-2.25 -1.02,-3.83 -0.93,-1.57 -2.58,-2.45 -1.65,-0.87 -3.8,-0.87 v 0 q -2.4,0 -4.17,1.1 -1.78,1.1 -2.78,3.07 -1,1.98 -1,4.63 v 0 q 0,2.85 1.08,4.95 1.07,2.1 3,3.25 1.92,1.15 4.42,1.15 v 0 q 4.45,0 7.5,-3.15 v 0 l 3.05,3.05 q -1.95,2.15 -4.75,3.32 -2.8,1.18 -6.25,1.18 v 0 q -4.1,0 -7.15,-1.7 -3.05,-1.7 -4.75,-4.73 -1.7,-3.02 -1.7,-7.02 v 0 q 0,-4 1.7,-7.03 1.7,-3.02 4.75,-4.72 3.05,-1.7 7,-1.75 v 0 q 4.7,0 7.55,1.92 2.85,1.93 4.05,5.43 1.2,3.5 0.85,8.3 v 0 h -21.25 z"
                                 id="path14" />
                              <path
                                 d="m 152.94,0 v -26.55 h 5.75 V 0 Z"
                                 id="path13" />
                              <path
                                 d="m 167.89,-26.75 v 5.2 q -2.85,-0.15 -4.93,0.97 -2.07,1.13 -3.2,3.13 -1.12,2 -1.12,4.6 v 0 l -1.6,-0.2 q 0,-4.45 1.3,-7.5 1.3,-3.05 3.75,-4.63 2.45,-1.57 5.8,-1.57 z"
                                 id="path12" />
                              <path
                                 d="m 139.59,0 -0.05,-16.85 q 0,-2.6 -1.6,-4.05 -1.6,-1.45 -4.75,-1.45 v 0 q -1.9,0 -3.88,0.7 -1.97,0.7 -3.97,2.05 v 0 l -2.35,-3.7 q 1.85,-1.15 3.5,-1.9 1.65,-0.75 3.52,-1.15 1.88,-0.4 4.43,-0.4 v 0 q 5.15,0 7.92,2.47 2.78,2.48 2.83,6.83 v 0 L 145.24,0 Z"
                                 id="path11" />
                              <path
                                 d="m 140.29,-11.85 h -7.95 q -2.8,0 -4.15,0.85 -1.35,0.85 -1.35,2.8 v 0 q 0,1.85 1.37,2.95 1.38,1.1 3.78,1.1 v 0 q 2.15,0 3.85,-0.75 1.7,-0.75 2.7,-2.03 1,-1.27 1.05,-2.87 v 0 l 1.1,4.85 q -1.25,2.6 -3.8,3.9 -2.55,1.3 -6.1,1.3 v 0 q -2.85,0 -4.95,-1.1 -2.1,-1.1 -3.25,-2.98 -1.15,-1.87 -1.15,-4.17 v 0 q 0,-3.6 2.62,-5.75 2.63,-2.15 7.43,-2.2 v 0 h 8.8 z"
                                 id="path10" />
                              <path
                                 d="m 84.44,0 v -35 h 5.9 v 15.35 h 18.55 V -35 h 5.9 V 0 h -5.9 V -14.65 H 90.34 V 0 Z"
                                 id="path9" />
                              <path
                                 d="m 64.6,-14.1 -21.4,9.25 v -4.2 L 60.75,-16.5 43.2,-24 v -4.2 l 21.4,9.3 z"
                                 id="path8"
                                 style="fill:#ff7f2a" />
                              <path
                                 d="M 23.85,5.9 39.7,-40.85 h 4.9 L 28.75,5.9 Z"
                                 id="path7"
                                 style="fill:#ff7f2a" />
                              <path
                                 d="m 1.75,-18.7 21.4,-9.25 v 4.2 L 5.6,-16.3 23.15,-8.8 v 4.2 l -21.4,-9.3 z"
                                 id="text-0"
                                 style="fill:#ff7f2a" />
                            </svg>
                          </g>
                        </svg>
                      </g>
                    </svg>
                  </g>
                </svg>
              </g>
            </svg>
          </g>
          <defs
             id="defs4" />
        </svg>
        <rect
           visibility="hidden"
           stroke="none"
           fill="none"
           height="95.126312"
           width="395.51999"
           id="rect5"
           x="0"
           y="0" />
      </g>
    </svg>
  </g>
</svg>
